<svg version="1.1" viewBox="0 0 100 100" xmlns="http://www.w3.org/2000/svg">
	<rect width="100" height="100" rx="6" ry="6" fill="#008000"/>
	<path d="m46.313 20.039c3.1599 8.4655 1.5995 13.186-2.0286 16.814-3.8231 4.0962-9.948 7.1391-14.161 13.108-5.6567 7.9974-6.632 25.475 13.771 30.039-8.5826-4.5254-10.416-17.633-1.1704-25.787-2.3797 7.9194 2.0676 12.991 7.5683 11.157 5.4226-1.8336 8.9727 2.0676 8.8557 6.515-.07802 3.0429-1.2094 5.6177-4.4083 7.0611 13.342-2.3017 18.648-13.342 18.648-21.691 0-11.079-9.87-12.562-4.8765-21.886-5.9298.50715-7.9194 4.4083-7.3732 10.728.3511 4.2133-3.9792 7.0221-7.2562 5.1886-2.6138-1.5995-2.5748-4.6424-.23407-6.9441 4.8765-4.7984 6.827-15.956-7.3342-24.265l-.07802-.07802z" fill="#fafafa" fill-rule="evenodd"/>
</svg>
