<?xml version="1.0" standalone="no"?>
<!DOCTYPE svg PUBLIC "-//W3C//DTD SVG 20010904//EN"
 "http://www.w3.org/TR/2001/REC-SVG-20010904/DTD/svg10.dtd">
<svg version="1.0" xmlns="http://www.w3.org/2000/svg"
 width="700.000000pt" height="700.000000pt" viewBox="0 0 700.000000 700.000000"
 preserveAspectRatio="xMidYMid meet">
<metadata>
Created by potrace 1.14, written by Peter Selinger 2001-2017
</metadata>
<g transform="translate(0.000000,700.000000) scale(0.100000,-0.100000)"
fill="#000000" stroke="none">
<path d="M3090 6846 c0 -2 7 -21 16 -42 14 -33 67 -197 79 -244 67 -255 89
-407 89 -605 0 -232 -34 -391 -125 -580 -122 -257 -339 -485 -824 -865 -214
-168 -359 -283 -365 -290 -3 -3 -21 -18 -40 -34 -168 -137 -410 -378 -534
-532 -122 -152 -197 -268 -271 -419 -132 -273 -200 -519 -230 -835 -7 -71 -8
-303 -1 -355 3 -22 8 -66 11 -98 12 -121 70 -356 110 -452 66 -156 87 -199
160 -324 48 -81 174 -240 263 -330 217 -219 446 -369 792 -519 117 -51 298
-111 441 -147 57 -15 113 -29 124 -32 11 -3 -13 16 -53 40 -103 65 -180 127
-269 215 -126 125 -204 234 -286 398 -125 250 -188 527 -181 804 2 88 11 204
19 230 2 8 6 33 9 55 12 106 79 318 146 460 80 171 183 332 300 465 66 75 202
212 206 207 2 -2 -7 -48 -20 -103 -33 -133 -37 -166 -41 -329 -4 -198 19 -317
90 -471 83 -176 233 -307 409 -355 138 -37 252 -32 431 21 125 36 148 40 260
45 79 3 118 -1 200 -19 50 -11 138 -50 191 -85 210 -137 328 -373 327 -656 -1
-365 -146 -629 -429 -780 l-49 -26 45 6 c75 11 298 71 410 110 241 85 525 244
721 403 564 459 908 1197 901 1931 -2 255 -63 526 -169 748 -54 113 -124 234
-254 438 -64 99 -123 196 -133 215 -69 133 -87 175 -112 255 -25 79 -29 105
-29 220 0 164 13 236 65 365 12 30 27 69 34 85 6 17 19 44 29 62 9 18 17 35
17 38 0 20 -261 -38 -352 -78 -88 -39 -180 -102 -239 -164 -117 -123 -177
-254 -225 -493 -4 -19 -8 -170 -9 -335 -2 -238 -5 -311 -18 -353 -45 -152
-164 -291 -308 -360 -102 -49 -160 -62 -259 -58 -288 12 -489 255 -436 525 20
99 96 224 211 345 121 127 215 276 279 442 151 391 131 792 -58 1189 -52 107
-167 292 -223 357 -254 293 -437 450 -776 662 -55 35 -67 40 -67 32z"/>
</g>
</svg>
